<svg xmlns="http://www.w3.org/2000/svg" viewBox="0 0 1200 900" fill="none">
  <rect width="1200" height="900" fill="url(#bg)"/>
  <circle cx="388" cy="188" r="108" fill="#E0F2E7" opacity="0.24"/>
  <path d="M0 292C151 224 300 212 458 272C625 334 744 369 920 312C1038 274 1128 276 1200 292" fill="rgba(255,255,255,0.1)"/>
  <path d="M0 404C179 334 298 348 467 410C648 476 816 510 972 457C1070 424 1140 416 1200 428V900H0V404Z" fill="#79C0A6" opacity="0.4"/>
  <path d="M0 482C155 438 289 451 463 515C646 583 836 656 1200 589V900H0V482Z" fill="rgba(16,36,63,0.34)"/>
  <rect x="60" y="60" width="1080" height="780" rx="36" stroke="rgba(255,255,255,0.14)" stroke-width="2"/>
  <text x="82" y="728" fill="#FFFFFF" fill-opacity="0.66" font-size="28" letter-spacing="7" font-family="Arial, sans-serif">PLACEHOLDER VISUAL</text>
  <text x="82" y="788" fill="#FFFFFF" font-size="64" font-weight="700" font-family="Arial, sans-serif">Services 6</text>
  <defs>
    <linearGradient id="bg" x1="42" y1="48" x2="1120" y2="852" gradientUnits="userSpaceOnUse">
      <stop stop-color="#2C6455"/>
      <stop offset="1" stop-color="#79C0A6"/>
    </linearGradient>
  </defs>
</svg>