<svg xmlns="http://www.w3.org/2000/svg" viewBox="0 0 720 540" fill="none">
  <rect width="720" height="540" fill="url(#bg)"/>
  <circle cx="590" cy="116" r="92" fill="#E7C989" opacity="0.18"/>
  <circle cx="132" cy="104" r="116" fill="#FFFFFF" opacity="0.05"/>
  <path d="M0 392C84 352 176 340 264 349C339 357 406 381 479 387C555 394 634 380 720 332V540H0V392Z" fill="rgba(255,255,255,0.08)"/>
  <rect x="94" y="108" width="532" height="258" rx="128" fill="rgba(91,183,212,0.24)"/>
    <rect x="120" y="132" width="484" height="210" rx="105" fill="rgba(91,183,212,0.14)"/>
    <path d="M162 316C226 297 290 296 352 310C422 325 493 328 566 313" fill="none" stroke="rgba(255,255,255,0.28)" stroke-width="7" stroke-linecap="round"/>
    <path d="M176 340C234 328 292 328 350 340C409 352 468 354 529 345" fill="none" stroke="rgba(255,255,255,0.18)" stroke-width="6" stroke-linecap="round"/>
    <g transform="translate(150 166) scale(0.41)">
      <path
        d="M95.0 317.4 L103.1 328.3 L166.3 347.7 L201.8 343.2 L272.1 357.9 L284.6 349.2 L299.4 366.1 L310.1 358.9 L373.5 368.3 L385.2 395.1 L418.4 403.0 L423.1 384.6 L426.9 398.3 L446.0 403.8 L439.9 413.9 L464.6 406.0 L469.4 428.9 L495.6 413.3 L487.5 435.1 L499.6 439.8 L510.1 422.4 L511.8 442.6 L544.1 456.6 L546.4 436.2 L570.2 441.2 L554.7 424.5 L572.4 415.9 L571.2 434.5 L596.7 439.3 L567.6 452.1 L577.4 470.0 L594.2 469.9 L592.9 456.2 L618.5 454.6 L626.3 467.8 L640.7 460.2 L678.0 465.9 L673.0 455.6 L685.5 449.3 L695.5 466.5 L730.5 466.8 L707.6 452.4 L732.5 447.1 L720.8 434.3 L735.0 423.4 L709.8 424.6 L719.2 413.8 L669.6 406.1 L697.4 398.5 L673.1 365.7 L689.1 362.4 L694.4 345.6 L701.9 353.0 L726.3 345.5 L728.3 335.2 L663.9 309.3 L634.2 310.6 L630.6 319.0 L570.3 290.3 L544.8 298.1 L539.5 314.9 L508.1 318.8 L496.2 311.1 L497.9 318.1 L452.6 302.2 L376.3 301.1 L351.5 287.7 L299.9 295.7 L284.3 282.5 L170.8 271.2 L139.0 278.4 L95.0 317.4 Z"
        fill="rgba(255,255,255,0.94)"
      />
      <path d="M154 404C255 372 355 383 442 395" fill="none" stroke="rgba(255,255,255,0.6)" stroke-width="10" stroke-linecap="round" />
    </g>
    <g transform="translate(175.33333338964948 132) scale(0.025342271512269886)">
      <path
        d="M -1396.39 625.44 L -1477.99 736.23 L -1505.19 917.21 L -1551.58 1061.82 L -1577.98 1135.4 L -1578.78 1240.27 L -1561.98 1323.99 L -1615.58 1419.56 L -1564.38 1553.18 L -1465.99 1638.59 L -1357.99 1698.64 L -1258.8 1704.56 L -1159.6 1655.51 L -1098.8 1594.62 L -1091.6 1451.69 L -990.81 1374.73 L -970.01 1347.67 L -874.01 1313.84 L -842.02 1213.21 L -846.82 1177.69 L -764.42 1160.77 L -771.62 1076.2 L -863.62 1011.08 L -948.41 873.23 L -1077.21 823.34 L -1396.39 625.44 Z"
        fill="none"
        stroke="rgba(255,255,255,0.18)"
        stroke-width="6"
        stroke-linejoin="round"
        vector-effect="non-scaling-stroke"
      />
      <path
        d="M -1396.39 625.44 L -1477.99 736.23 L -1505.19 917.21 L -1551.58 1061.82 L -1577.98 1135.4 L -1578.78 1240.27 L -1561.98 1323.99 L -1615.58 1419.56 L -1564.38 1553.18 L -1465.99 1638.59 L -1357.99 1698.64 L -1258.8 1704.56 L -1159.6 1655.51 L -1098.8 1594.62 L -1091.6 1451.69 L -990.81 1374.73 L -970.01 1347.67 L -874.01 1313.84 L -842.02 1213.21 L -846.82 1177.69 L -764.42 1160.77 L -771.62 1076.2 L -863.62 1011.08 L -948.41 873.23 L -1077.21 823.34 L -1396.39 625.44 Z"
        fill="#F2D8A0"
        opacity="0.96"
      />
      <path
        d="M -1396.39 625.44 L -1477.99 736.23 L -1505.19 917.21 L -1551.58 1061.82 L -1577.98 1135.4 L -1578.78 1240.27 L -1561.98 1323.99 L -1615.58 1419.56 L -1564.38 1553.18 L -1465.99 1638.59 L -1357.99 1698.64 L -1258.8 1704.56 L -1159.6 1655.51 L -1098.8 1594.62 L -1091.6 1451.69 L -990.81 1374.73 L -970.01 1347.67 L -874.01 1313.84 L -842.02 1213.21 L -846.82 1177.69 L -764.42 1160.77 L -771.62 1076.2 L -863.62 1011.08 L -948.41 873.23 L -1077.21 823.34 L -1396.39 625.44 Z"
        fill="none"
        stroke="rgba(255,255,255,0.38)"
        stroke-width="1.8"
        stroke-linejoin="round"
        vector-effect="non-scaling-stroke"
      />
      <path
        d="M 11155.93444 1292.3 L 11194.81444 1342.27 L 11423.54444 1347.31 L 11530.72444 1488.54 L 11519.88444 1855.81 L 11595.65444 1952.32 L 11595.75444 2042.08 L 11818.34444 2327.26 L 11811.57444 2416.02 L 11850.44444 2466.84 L 11925.60444 2465.95 L 11996.55444 2562.35 L 12299.73444 2568.99 L 12376.86444 2478.38 L 12527.82444 2479.15 L 12673.92444 2670.33 L 12751.85444 2668.65 L 12903.92444 2492.45 L 13431.15444 2498.87 L 13499.44444 2591.81 L 13730.19444 2600.22 L 13798.45444 2694.85 L 14104.39444 2701.5 L 14217.59444 2567.62 L 14231.64444 1920.15 L 14160.67444 1823.77 L 14160.62444 1730.62 L 14089.65444 1634.24 L 14104.39444 1082.47 L 14064.81444 1032.49 L 13989.72444 1030.86 L 13874.86444 892.88 L 13881.78444 796.5 L 13956.79444 706.68 L 13956.13444 610.13 L 13887.85444 517.19 L 13887.73444 427.43 L 13855.63444 382.7 L 13627.61444 377.74 L 13551.83444 281.25 L 13404.34444 281.42 L 13321.75444 371.07 L 13100.68444 363.71 L 13023.58444 454.32 L 12948.49444 452.68 L 12872.66444 358.73 L 12795.48444 452.73 L 12642.63444 445.99 L 12574.25444 358.12 L 12122.42444 344.83 L 12045.37444 432.9 L 11970.20444 434.64 L 11932.00444 479.52 L 11932.02444 572.67 L 11886.37444 611.47 L 11818.11444 612.51 L 11736.08444 707.24 L 11512.87444 702.33 L 11435.83444 789.54 L 11359.88444 701.5 L 11245.96444 835.32 L 11233.08444 1200.85 L 11155.93444 1292.3 Z"
        fill="#E7C989"
        opacity="0.9"
      />
      <path
        d="M 11155.93444 1292.3 L 11194.81444 1342.27 L 11423.54444 1347.31 L 11530.72444 1488.54 L 11519.88444 1855.81 L 11595.65444 1952.32 L 11595.75444 2042.08 L 11818.34444 2327.26 L 11811.57444 2416.02 L 11850.44444 2466.84 L 11925.60444 2465.95 L 11996.55444 2562.35 L 12299.73444 2568.99 L 12376.86444 2478.38 L 12527.82444 2479.15 L 12673.92444 2670.33 L 12751.85444 2668.65 L 12903.92444 2492.45 L 13431.15444 2498.87 L 13499.44444 2591.81 L 13730.19444 2600.22 L 13798.45444 2694.85 L 14104.39444 2701.5 L 14217.59444 2567.62 L 14231.64444 1920.15 L 14160.67444 1823.77 L 14160.62444 1730.62 L 14089.65444 1634.24 L 14104.39444 1082.47 L 14064.81444 1032.49 L 13989.72444 1030.86 L 13874.86444 892.88 L 13881.78444 796.5 L 13956.79444 706.68 L 13956.13444 610.13 L 13887.85444 517.19 L 13887.73444 427.43 L 13855.63444 382.7 L 13627.61444 377.74 L 13551.83444 281.25 L 13404.34444 281.42 L 13321.75444 371.07 L 13100.68444 363.71 L 13023.58444 454.32 L 12948.49444 452.68 L 12872.66444 358.73 L 12795.48444 452.73 L 12642.63444 445.99 L 12574.25444 358.12 L 12122.42444 344.83 L 12045.37444 432.9 L 11970.20444 434.64 L 11932.00444 479.52 L 11932.02444 572.67 L 11886.37444 611.47 L 11818.11444 612.51 L 11736.08444 707.24 L 11512.87444 702.33 L 11435.83444 789.54 L 11359.88444 701.5 L 11245.96444 835.32 L 11233.08444 1200.85 L 11155.93444 1292.3 Z"
        fill="none"
        stroke="rgba(255,255,255,0.36)"
        stroke-width="2"
        stroke-linejoin="round"
        vector-effect="non-scaling-stroke"
      />
    </g>
    <circle cx="264" cy="294" r="10" fill="#E7C989" opacity="0.9"/>
    <circle cx="338" cy="286" r="10" fill="#E7C989" opacity="0.9"/>
    <circle cx="390" cy="316" r="10" fill="#E7C989" opacity="0.9"/>
    <circle cx="590" cy="244" r="10" fill="#E7C989" opacity="0.9"/>
  <rect x="52" y="52" width="616" height="436" rx="36" stroke="rgba(255,255,255,0.12)" stroke-width="2"/>
  <rect x="0" y="336" width="720" height="204" fill="url(#bottomFade)"/>
  <rect x="64" y="398" width="156" height="12" rx="6" fill="rgba(255,255,255,0.3)"/>
  <rect x="64" y="426" width="248" height="18" rx="9" fill="rgba(255,255,255,0.92)"/>
  <rect x="64" y="454" width="196" height="18" rx="9" fill="rgba(255,255,255,0.7)"/>
  <defs>
    <linearGradient id="bg" x1="38" y1="34" x2="684" y2="506" gradientUnits="userSpaceOnUse">
      <stop stop-color="#10243F"/>
      <stop offset="1" stop-color="#5BB7D4"/>
    </linearGradient>
    <linearGradient id="bottomFade" x1="360" y1="336" x2="360" y2="540" gradientUnits="userSpaceOnUse">
      <stop stop-color="rgba(16,36,63,0)"/>
      <stop offset="1" stop-color="rgba(16,36,63,0.44)"/>
    </linearGradient>
  </defs>
</svg>