<svg xmlns="http://www.w3.org/2000/svg" viewBox="0 0 720 540" fill="none">
  <rect width="720" height="540" fill="url(#bg)"/>
  <circle cx="587" cy="121" r="88" fill="#DCEFD9" opacity="0.2"/>
  <path d="M132 392C193 373 255 369 333 388C412 407 482 412 548 405C602 400 644 388 677 372" fill="none" stroke="rgba(255,255,255,0.4)" stroke-width="10" stroke-linecap="round"/>
      <path d="M168 336H460C485 336 506 353 511 377H149C153 354 144 336 168 336Z" fill="rgba(255,255,255,0.9)"/>
      <path d="M194 296C224 264 255 249 294 249H376C411 249 434 259 458 281L492 320H181L194 296Z" fill="rgba(255,255,255,0.16)"/>
      <circle cx="219" cy="384" r="35" fill="#DCEFD9" opacity="0.86"/>
      <circle cx="219" cy="384" r="18" fill="#1E5A38"/>
      <circle cx="434" cy="384" r="35" fill="#DCEFD9" opacity="0.86"/>
      <circle cx="434" cy="384" r="18" fill="#1E5A38"/>
      <path d="M516 198L577 252H471L516 198Z" fill="rgba(255,255,255,0.82)"/>
      <path d="M516 198V302" stroke="rgba(255,255,255,0.9)" stroke-width="8" stroke-linecap="round"/>
      <path d="M486 316C529 307 572 307 616 321" fill="none" stroke="#DCEFD9" stroke-width="8" stroke-linecap="round" opacity="0.76"/>
  <rect x="52" y="52" width="616" height="436" rx="36" stroke="rgba(255,255,255,0.12)" stroke-width="2"/>
  <text x="64" y="426" fill="#FFFFFF" fill-opacity="0.64" font-size="22" letter-spacing="5" font-family="Arial, sans-serif">BARCHE, SCOOTER, AUTO, BICI</text>
  <text x="64" y="470" fill="#FFFFFF" font-size="52" font-weight="700" font-family="Arial, sans-serif">Trasporti</text>
  <defs>
    <linearGradient id="bg" x1="38" y1="34" x2="684" y2="506" gradientUnits="userSpaceOnUse">
      <stop stop-color="#1E5A38"/>
      <stop offset="1" stop-color="#4E9C63"/>
    </linearGradient>
  </defs>
</svg>