<svg xmlns="http://www.w3.org/2000/svg" viewBox="0 0 720 540" fill="none">
  <rect width="720" height="540" fill="url(#bg)"/>
  <circle cx="590" cy="116" r="92" fill="#C89A3D" opacity="0.18"/>
  <circle cx="132" cy="104" r="116" fill="#FFFFFF" opacity="0.05"/>
  <path d="M0 392C84 352 176 340 264 349C339 357 406 381 479 387C555 394 634 380 720 332V540H0V392Z" fill="rgba(255,255,255,0.08)"/>
  <path d="M0 324C88 301 179 299 267 316C354 333 440 356 525 355C595 354 661 339 720 312V540H0V324Z" fill="rgba(255,255,255,0.12)"/>
      <path d="M0 364C94 345 184 346 271 364C357 382 447 398 539 395C601 393 661 382 720 359V540H0V364Z" fill="rgba(91,183,212,0.2)"/>
      <path d="M112 378C184 362 253 362 323 377C404 394 491 403 583 393C632 388 678 379 720 364" fill="none" stroke="rgba(255,255,255,0.72)" stroke-width="8" stroke-linecap="round"/>
      <path d="M136 410C202 399 266 400 332 414C409 430 493 438 583 429C632 424 678 416 720 400" fill="none" stroke="#C89A3D" stroke-width="6" stroke-linecap="round" opacity="0.82"/>
      <g transform="translate(144 124)">
        <ellipse cx="212" cy="140" rx="172" ry="102" fill="rgba(255,255,255,0.18)"/>
        <path d="M214 80V248" stroke="rgba(255,255,255,0.94)" stroke-width="7" stroke-linecap="round"/>
        <path d="M214 88L314 246H214V88Z" fill="rgba(255,255,255,0.94)"/>
        <path d="M214 116L148 234H214V116Z" fill="rgba(255,255,255,0.82)"/>
        <path d="M116 248H388C377 274 352 293 314 305C266 319 203 321 151 308C116 299 90 283 76 261C69 251 76 248 116 248Z" fill="rgba(255,255,255,0.94)"/>
        <path d="M146 248C178 240 212 236 251 236C296 236 335 241 372 252" fill="none" stroke="rgba(16,36,63,0.16)" stroke-width="4" stroke-linecap="round"/>
        <path d="M165 278C196 271 227 268 262 268C297 268 328 272 358 280" fill="none" stroke="rgba(255,255,255,0.56)" stroke-width="5" stroke-linecap="round"/>
        <path d="M150 247H300" stroke="#C89A3D" stroke-width="5" stroke-linecap="round" opacity="0.76"/>
      </g>
  <rect x="52" y="52" width="616" height="436" rx="36" stroke="rgba(255,255,255,0.12)" stroke-width="2"/>
  <rect x="0" y="336" width="720" height="204" fill="url(#bottomFade)"/>
  <rect x="64" y="398" width="156" height="12" rx="6" fill="rgba(255,255,255,0.3)"/>
  <rect x="64" y="426" width="248" height="18" rx="9" fill="rgba(255,255,255,0.92)"/>
  <rect x="64" y="454" width="196" height="18" rx="9" fill="rgba(255,255,255,0.7)"/>
  <defs>
    <linearGradient id="bg" x1="38" y1="34" x2="684" y2="506" gradientUnits="userSpaceOnUse">
      <stop stop-color="#16365D"/>
      <stop offset="1" stop-color="#5BB7D4"/>
    </linearGradient>
    <linearGradient id="bottomFade" x1="360" y1="336" x2="360" y2="540" gradientUnits="userSpaceOnUse">
      <stop stop-color="rgba(16,36,63,0)"/>
      <stop offset="1" stop-color="rgba(16,36,63,0.44)"/>
    </linearGradient>
  </defs>
</svg>