<svg xmlns="http://www.w3.org/2000/svg" viewBox="0 0 720 540" fill="none">
  <rect width="720" height="540" fill="url(#bg)"/>
  <circle cx="590" cy="116" r="92" fill="#F3E0B2" opacity="0.18"/>
  <circle cx="132" cy="104" r="116" fill="#FFFFFF" opacity="0.05"/>
  <path d="M0 392C84 352 176 340 264 349C339 357 406 381 479 387C555 394 634 380 720 332V540H0V392Z" fill="rgba(255,255,255,0.08)"/>
  <path d="M140 166C140 132 168 104 202 104H300V274H140V166Z" fill="rgba(255,255,255,0.1)"/>
      <path d="M312 128C312 96 338 70 370 70H470V246H312V128Z" fill="rgba(255,255,255,0.12)"/>
      <path d="M482 164C482 135 506 112 535 112H596V280H482V164Z" fill="rgba(255,255,255,0.18)"/>
      <g transform="translate(146 206)">
        <rect x="0" y="120" width="430" height="98" rx="32" fill="rgba(255,255,255,0.94)"/>
        <rect x="0" y="64" width="134" height="82" rx="28" fill="rgba(255,255,255,0.72)"/>
        <rect x="296" y="64" width="134" height="82" rx="28" fill="rgba(255,255,255,0.72)"/>
        <rect x="118" y="108" width="194" height="86" rx="28" fill="rgba(255,255,255,0.86)"/>
        <rect x="26" y="140" width="120" height="54" rx="24" fill="rgba(16,36,63,0.1)"/>
        <rect x="284" y="140" width="120" height="54" rx="24" fill="rgba(16,36,63,0.1)"/>
        <path d="M24 219C109 203 197 200 283 211C338 218 387 230 429 248" fill="none" stroke="#F3E0B2" stroke-width="7" stroke-linecap="round" opacity="0.84"/>
      </g>
      <path d="M518 128C518 102 539 81 565 81C554 93 548 107 548 121C548 143 565 161 586 166C579 171 570 174 560 174C537 174 518 155 518 128Z" fill="rgba(255,255,255,0.72)"/>
  <rect x="52" y="52" width="616" height="436" rx="36" stroke="rgba(255,255,255,0.12)" stroke-width="2"/>
  <rect x="0" y="336" width="720" height="204" fill="url(#bottomFade)"/>
  <text x="64" y="426" fill="#FFFFFF" fill-opacity="0.64" font-size="22" letter-spacing="5" font-family="Arial, sans-serif">HOTEL, B&amp;B, CASE VACANZA</text>
  <text x="64" y="470" fill="#FFFFFF" font-size="52" font-weight="700" font-family="Arial, sans-serif">Ospitalità</text>
  <defs>
    <linearGradient id="bg" x1="38" y1="34" x2="684" y2="506" gradientUnits="userSpaceOnUse">
      <stop stop-color="#7A5A1A"/>
      <stop offset="1" stop-color="#C89A3D"/>
    </linearGradient>
    <linearGradient id="bottomFade" x1="360" y1="336" x2="360" y2="540" gradientUnits="userSpaceOnUse">
      <stop stop-color="rgba(16,36,63,0)"/>
      <stop offset="1" stop-color="rgba(16,36,63,0.44)"/>
    </linearGradient>
  </defs>
</svg>