<svg xmlns="http://www.w3.org/2000/svg" viewBox="0 0 720 540" fill="none">
  <rect width="720" height="540" fill="url(#bg)"/>
  <circle cx="587" cy="121" r="88" fill="#F3E0B2" opacity="0.2"/>
  <rect x="138" y="262" width="432" height="112" rx="34" fill="rgba(255,255,255,0.18)"/>
      <rect x="164" y="228" width="138" height="92" rx="32" fill="rgba(255,255,255,0.28)"/>
      <rect x="312" y="284" width="214" height="58" rx="29" fill="rgba(255,255,255,0.92)"/>
      <rect x="312" y="348" width="228" height="34" rx="17" fill="#F3E0B2" opacity="0.72"/>
      <path d="M502 150C502 120 527 95 557 95C544 108 537 124 537 140C537 166 556 189 582 195C574 200 563 204 551 204C524 204 502 181 502 150Z" fill="rgba(255,255,255,0.76)"/>
      <rect x="170" y="122" width="124" height="84" rx="24" fill="rgba(255,255,255,0.14)"/>
      <path d="M232 122V206" stroke="rgba(255,255,255,0.3)" stroke-width="8"/>
      <path d="M170 164H294" stroke="rgba(255,255,255,0.3)" stroke-width="8"/>
  <rect x="52" y="52" width="616" height="436" rx="36" stroke="rgba(255,255,255,0.12)" stroke-width="2"/>
  <text x="64" y="426" fill="#FFFFFF" fill-opacity="0.64" font-size="22" letter-spacing="5" font-family="Arial, sans-serif">HOTEL, B&amp;B, CASE VACANZA</text>
  <text x="64" y="470" fill="#FFFFFF" font-size="52" font-weight="700" font-family="Arial, sans-serif">Ospitalità</text>
  <defs>
    <linearGradient id="bg" x1="38" y1="34" x2="684" y2="506" gradientUnits="userSpaceOnUse">
      <stop stop-color="#7A5A1A"/>
      <stop offset="1" stop-color="#C89A3D"/>
    </linearGradient>
  </defs>
</svg>