<svg xmlns="http://www.w3.org/2000/svg" viewBox="0 0 720 540" fill="none">
  <rect width="720" height="540" fill="url(#bg)"/>
  <circle cx="590" cy="116" r="92" fill="#E7C989" opacity="0.18"/>
  <circle cx="132" cy="104" r="116" fill="#FFFFFF" opacity="0.05"/>
  <path d="M0 392C84 352 176 340 264 349C339 357 406 381 479 387C555 394 634 380 720 332V540H0V392Z" fill="rgba(255,255,255,0.08)"/>
  <rect x="94" y="108" width="532" height="258" rx="128" fill="rgba(91,183,212,0.24)"/>
    <rect x="120" y="132" width="484" height="210" rx="105" fill="rgba(91,183,212,0.14)"/>
    <path d="M162 316C226 297 290 296 352 310C422 325 493 328 566 313" fill="none" stroke="rgba(255,255,255,0.28)" stroke-width="7" stroke-linecap="round"/>
    <path d="M176 340C234 328 292 328 350 340C409 352 468 354 529 345" fill="none" stroke="rgba(255,255,255,0.18)" stroke-width="6" stroke-linecap="round"/>
    <g transform="translate(152.45 266.43) scale(0.015)">
      <path
        d="M -1396.39 625.44 L -1477.99 736.23 L -1505.19 917.21 L -1551.58 1061.82 L -1577.98 1135.4 L -1578.78 1240.27 L -1561.98 1323.99 L -1615.58 1419.56 L -1564.38 1553.18 L -1465.99 1638.59 L -1357.99 1698.64 L -1258.8 1704.56 L -1159.6 1655.51 L -1098.8 1594.62 L -1091.6 1451.69 L -990.81 1374.73 L -970.01 1347.67 L -874.01 1313.84 L -842.02 1213.21 L -846.82 1177.69 L -764.42 1160.77 L -771.62 1076.2 L -863.62 1011.08 L -948.41 873.23 L -1077.21 823.34 L -1396.39 625.44 Z"
        fill="#F2DFB4"
        fill-opacity="0.92"
      />
      <path
        d="M -1490 1110C-1405 1058 -1288 1058 -1162 1102"
        fill="none"
        stroke="rgba(255,255,255,0.52)"
        stroke-width="24"
        stroke-linecap="round"
      />
    </g>
    <g transform="translate(150 166) scale(0.41)">
      <path
        d="M95.0 317.4 L103.1 328.3 L166.3 347.7 L201.8 343.2 L272.1 357.9 L284.6 349.2 L299.4 366.1 L310.1 358.9 L373.5 368.3 L385.2 395.1 L418.4 403.0 L423.1 384.6 L426.9 398.3 L446.0 403.8 L439.9 413.9 L464.6 406.0 L469.4 428.9 L495.6 413.3 L487.5 435.1 L499.6 439.8 L510.1 422.4 L511.8 442.6 L544.1 456.6 L546.4 436.2 L570.2 441.2 L554.7 424.5 L572.4 415.9 L571.2 434.5 L596.7 439.3 L567.6 452.1 L577.4 470.0 L594.2 469.9 L592.9 456.2 L618.5 454.6 L626.3 467.8 L640.7 460.2 L678.0 465.9 L673.0 455.6 L685.5 449.3 L695.5 466.5 L730.5 466.8 L707.6 452.4 L732.5 447.1 L720.8 434.3 L735.0 423.4 L709.8 424.6 L719.2 413.8 L669.6 406.1 L697.4 398.5 L673.1 365.7 L689.1 362.4 L694.4 345.6 L701.9 353.0 L726.3 345.5 L728.3 335.2 L663.9 309.3 L634.2 310.6 L630.6 319.0 L570.3 290.3 L544.8 298.1 L539.5 314.9 L508.1 318.8 L496.2 311.1 L497.9 318.1 L452.6 302.2 L376.3 301.1 L351.5 287.7 L299.9 295.7 L284.3 282.5 L170.8 271.2 L139.0 278.4 L95.0 317.4 Z"
        fill="rgba(255,255,255,0.94)"
      />
      <path d="M154 404C255 372 355 383 442 395" fill="none" stroke="rgba(255,255,255,0.6)" stroke-width="10" stroke-linecap="round" />
    </g>
    <g transform="translate(372 124) scale(0.26)">
      <path
        d="M760.0 451.1 L770.2 458.5 L775.1 453.3 L782.9 455.4 L781.3 464.6 L786.9 472.7 L776.2 471.4 L780.4 479.0 L787.5 482.6 L793.2 497.9 L804.5 506.3 L808.7 507.2 L810.2 503.7 L822.3 505.6 L824.7 500.5 L830.2 504.2 L825.6 504.8 L842.4 506.2 L852.2 502.1 L855.0 503.8 L863.2 498.0 L876.7 507.8 L879.1 504.9 L882.9 507.3 L890.3 504.7 L899.5 510.0 L909.2 498.3 L910.0 486.6 L896.2 460.4 L900.4 453.1 L891.6 451.1 L893.8 448.9 L891.0 441.7 L894.8 441.0 L890.6 437.6 L897.5 430.7 L890.6 431.0 L885.6 422.5 L867.6 420.2 L865.2 424.1 L849.9 421.8 L830.2 423.8 L819.1 418.8 L807.9 419.7 L807.8 424.1 L798.7 425.0 L783.1 437.2 L764.9 437.5 L760.0 451.1 Z"
        fill="#E7C989"
        opacity="0.88"
      />
      <path d="M792 472C816 469 838 477 852 493" fill="none" stroke="rgba(255,255,255,0.5)" stroke-width="8" stroke-linecap="round" />
    </g>
    <circle cx="264" cy="294" r="10" fill="#E7C989" opacity="0.9"/>
    <circle cx="338" cy="286" r="10" fill="#E7C989" opacity="0.9"/>
    <circle cx="390" cy="316" r="10" fill="#E7C989" opacity="0.9"/>
    <circle cx="612" cy="244" r="10" fill="#E7C989" opacity="0.9"/>
  <rect x="52" y="52" width="616" height="436" rx="36" stroke="rgba(255,255,255,0.12)" stroke-width="2"/>
  <rect x="0" y="336" width="720" height="204" fill="url(#bottomFade)"/>
  <text x="64" y="426" fill="#FFFFFF" fill-opacity="0.64" font-size="22" letter-spacing="5" font-family="Arial, sans-serif">PELAGIE ILLUSTRATE</text>
  <text x="64" y="470" fill="#FFFFFF" font-size="52" font-weight="700" font-family="Arial, sans-serif">Esplora le Pelagie</text>
  <defs>
    <linearGradient id="bg" x1="38" y1="34" x2="684" y2="506" gradientUnits="userSpaceOnUse">
      <stop stop-color="#10243F"/>
      <stop offset="1" stop-color="#5BB7D4"/>
    </linearGradient>
    <linearGradient id="bottomFade" x1="360" y1="336" x2="360" y2="540" gradientUnits="userSpaceOnUse">
      <stop stop-color="rgba(16,36,63,0)"/>
      <stop offset="1" stop-color="rgba(16,36,63,0.44)"/>
    </linearGradient>
  </defs>
</svg>
