<svg xmlns="http://www.w3.org/2000/svg" viewBox="0 0 720 540" fill="none">
  <rect width="720" height="540" fill="url(#bg)"/>
  <circle cx="590" cy="116" r="92" fill="#C89A3D" opacity="0.18"/>
  <circle cx="132" cy="104" r="116" fill="#FFFFFF" opacity="0.05"/>
  <path d="M0 392C84 352 176 340 264 349C339 357 406 381 479 387C555 394 634 380 720 332V540H0V392Z" fill="rgba(255,255,255,0.08)"/>
  <path d="M0 304C77 280 159 277 239 294C317 310 392 339 476 343C552 347 633 327 720 277V540H0V304Z" fill="rgba(255,255,255,0.12)"/>
      <path d="M0 344C88 322 176 322 264 343C350 363 432 390 517 389C589 388 657 370 720 334V540H0V344Z" fill="rgba(91,183,212,0.2)"/>
      <path d="M132 400C213 381 287 383 357 407C435 434 518 446 607 432C650 425 688 414 720 397" fill="none" stroke="#C89A3D" stroke-width="7" stroke-linecap="round" opacity="0.78"/>
      <path d="M122 366C196 347 270 347 344 370C425 395 513 409 604 399C647 394 687 384 720 370" fill="none" stroke="rgba(255,255,255,0.56)" stroke-width="9" stroke-linecap="round"/>
      <path d="M210 310C240 262 294 231 360 231C406 231 444 245 474 273C503 300 518 336 519 377H205C204 352 205 332 210 310Z" fill="rgba(255,255,255,0.94)"/>
      <path d="M218 376C251 390 293 399 341 401C415 405 484 390 532 352" fill="none" stroke="#16365D" stroke-width="4.5" stroke-linecap="round" opacity="0.18"/>
      <path d="M334 156L414 305H268L334 156Z" fill="rgba(255,255,255,0.94)"/>
      <path d="M338 144V385" stroke="rgba(255,255,255,0.94)" stroke-width="8" stroke-linecap="round"/>
      <path d="M338 217L432 306" stroke="#C89A3D" stroke-width="7" stroke-linecap="round" opacity="0.9"/>
      <path d="M232 388C270 372 319 367 376 372C431 377 473 393 506 420" fill="none" stroke="rgba(255,255,255,0.72)" stroke-width="6" stroke-linecap="round"/>
      <path d="M238 402C270 395 299 397 326 405C349 412 372 427 390 445" fill="none" stroke="rgba(255,255,255,0.4)" stroke-width="5" stroke-linecap="round"/>
  <rect x="52" y="52" width="616" height="436" rx="36" stroke="rgba(255,255,255,0.12)" stroke-width="2"/>
  <rect x="0" y="336" width="720" height="204" fill="url(#bottomFade)"/>
  <text x="64" y="426" fill="#FFFFFF" fill-opacity="0.64" font-size="22" letter-spacing="5" font-family="Arial, sans-serif">MARE, SPORT E LUCE</text>
  <text x="64" y="470" fill="#FFFFFF" font-size="52" font-weight="700" font-family="Arial, sans-serif">Esperienze</text>
  <defs>
    <linearGradient id="bg" x1="38" y1="34" x2="684" y2="506" gradientUnits="userSpaceOnUse">
      <stop stop-color="#16365D"/>
      <stop offset="1" stop-color="#5BB7D4"/>
    </linearGradient>
    <linearGradient id="bottomFade" x1="360" y1="336" x2="360" y2="540" gradientUnits="userSpaceOnUse">
      <stop stop-color="rgba(16,36,63,0)"/>
      <stop offset="1" stop-color="rgba(16,36,63,0.44)"/>
    </linearGradient>
  </defs>
</svg>