<svg xmlns="http://www.w3.org/2000/svg" viewBox="0 0 14731.64444 8286.55000" width="1600" height="900" shape-rendering="geometricPrecision">
<g fill="#000000" stroke="none">
  <path d="M 500 4725.15 L 607.17 4869.28 L 758.78 4870.55 L 829.15 4963.79 L 982.69 4971.03 L 1058.55 5066.1 L 1282.85 5068.34 L 1355.97 5162.49 L 1510.23 5168.89 L 1577.8 5263.75 L 1732.04 5270.99 L 1890.37 5086.93 L 1961.04 5085.31 L 2036.87 5182.06 L 2263.16 5187.71 L 2334.2 5282.65 L 2714.9 5288.75 L 2790.09 5383.78 L 3090.44 5391.26 L 3160.83 5484.47 L 3312.45 5485.7 L 3388.37 5579.9 L 3617.21 5594.89 L 3685.66 5682.98 L 3990.86 5690.54 L 4068.85 5784.78 L 4290.32 5790.26 L 4366.22 5885.3 L 4817.39 5898.98 L 4854.39 5943.08 L 4854.11 6038.77 L 4925.19 6132.84 L 4925.06 6222.61 L 5033.07 6364.16 L 5186.72 6367.95 L 5254.98 6464.48 L 5330.48 6463.8 L 5408.11 6376.78 L 5637.2 6382.41 L 5750.15 6520.69 L 5745.05 6615.42 L 5782.04 6660.37 L 6087.27 6667.85 L 6233.55 6859.45 L 6379.76 6856.26 L 6462.94 6768.52 L 6538.3 6773.75 L 6569.77 6817.71 L 6570.2 6913.42 L 6494.55 7004.73 L 6492.23 7099.53 L 6411.99 7180.56 L 6448.86 7230.58 L 6677.88 7239.57 L 6714.3 7194.73 L 6716.64 7099.09 L 6753.08 7053.4 L 6831.13 7062.08 L 6944.1 7200.34 L 6936.83 7384.79 L 7047.04 7522.98 L 7122.49 7524.82 L 7198.44 7619.83 L 7273.97 7618.28 L 7502.76 7352.85 L 7580.29 7354.74 L 7616.72 7309.05 L 7623.9 7213.53 L 7738.63 7080.82 L 7814.16 7079.27 L 7853.23 7124.26 L 7846.08 7218.93 L 7885.03 7269 L 8036.7 7269.3 L 8075.78 7314.28 L 7953.98 7452.75 L 7883.44 7448.5 L 7686.02 7677.44 L 7681.53 7861.95 L 7718.39 7912.81 L 7796.67 7912.18 L 7865.06 8005.3 L 7947.51 7918.38 L 8018.18 7917.56 L 8176.44 7732.55 L 8481.56 7745.88 L 8513.02 7790.68 L 8513.5 7885.54 L 8549.81 7930.46 L 8855.08 7937.85 L 8932.7 7849.96 L 9008.23 7848.4 L 9076.59 7943.21 L 9381.73 7955.66 L 9420.38 7904.08 L 9420.59 7809.24 L 9542.23 7676.68 L 9693.06 7682.85 L 9725.25 7726.82 L 9725.02 7822.51 L 9764.82 7866.66 L 9840.27 7868.48 L 9910.71 7963.33 L 10215.86 7975.75 L 10330.01 7837.07 L 10334.67 7556.87 L 10417.2 7465.7 L 10416.71 7370.84 L 10495 7282.95 L 10494.39 7193.17 L 10576.95 7100.3 L 10537.86 7055.33 L 10316.44 7047.46 L 10277.33 7003.33 L 10284.07 6723.18 L 10247.04 6679.1 L 9788.17 6668.05 L 9751.83 6623.99 L 9870.9 6482.04 L 9948.97 6489.85 L 9985.53 6438.23 L 9992.76 6252.93 L 9877.68 6114.66 L 9801.47 6116.21 L 9618.11 5880.59 L 9701.47 5783.52 L 9700.84 5694.58 L 9744.79 5652.45 L 9815.46 5650.77 L 9859.63 5599.33 L 9859 5510.39 L 9898.11 5468.14 L 10049.05 5468.39 L 10124.62 5377.9 L 10278.19 5384.14 L 10392.17 5251.38 L 10284.91 5104.84 L 10131.23 5103.68 L 10055.25 5009.54 L 9904.48 5002.52 L 9833.36 4908.49 L 8772.55 4882.85 L 8704.06 4794.81 L 8475.24 4779.95 L 8399.14 4691.72 L 8253.22 4684.79 L 8174.5 4590.56 L 8106.6 4592.3 L 8030.74 4494.76 L 7955.23 4496.31 L 7877.64 4583.34 L 7801.45 4584.88 L 7565.66 4856.07 L 7192.74 4844.43 L 7110.22 4934.73 L 6963.43 4934.53 L 6888.27 4837 L 6583.04 4832.07 L 6512.62 4738.88 L 6207.46 4731.41 L 6131.55 4636.38 L 5229.98 4610.84 L 5154.13 4514.12 L 5000.36 4516.25 L 4924.82 4603.32 L 4773.89 4602.98 L 4702.82 4508.91 L 4627.39 4507.05 L 4551.48 4412.86 L 4397.95 4405.68 L 4326.9 4310.76 L 4176.12 4304.49 L 4100.32 4401.7 L 3649.93 4387.15 L 3571.28 4292.04 L 3266.82 4284.48 L 3198.52 4191.32 L 3044.84 4190.03 L 2968.94 4095.83 L 2892.75 4097.32 L 2822.49 3999.02 L 2747.14 3994.61 L 2676.01 3903.91 L 2600.67 3898.64 L 2522.04 3803.52 L 2449.38 3801.71 L 2378.32 3708.47 L 1997.7 3701.5 L 1922.75 3791.94 L 1844.56 3789.99 L 1686.4 3968.12 L 1235.25 3956.81 L 1159.5 4050.62 L 1084 4052.11 L 1006.49 4133.17 L 930.98 4134.66 L 619.32 4496.09 L 543.89 4494.19 L 504.66 4539.79 L 500 4725.15 Z" />
  <path d="M 11155.93444 1292.3 L 11194.81444 1342.27 L 11423.54444 1347.31 L 11530.72444 1488.54 L 11519.88444 1855.81 L 11595.65444 1952.32 L 11595.75444 2042.08 L 11818.34444 2327.26 L 11811.57444 2416.02 L 11850.44444 2466.84 L 11925.60444 2465.95 L 11996.55444 2562.35 L 12299.73444 2568.99 L 12376.86444 2478.38 L 12527.82444 2479.15 L 12673.92444 2670.33 L 12751.85444 2668.65 L 12903.92444 2492.45 L 13431.15444 2498.87 L 13499.44444 2591.81 L 13730.19444 2600.22 L 13798.45444 2694.85 L 14104.39444 2701.5 L 14217.59444 2567.62 L 14231.64444 1920.15 L 14160.67444 1823.77 L 14160.62444 1730.62 L 14089.65444 1634.24 L 14104.39444 1082.47 L 14064.81444 1032.49 L 13989.72444 1030.86 L 13874.86444 892.88 L 13881.78444 796.5 L 13956.79444 706.68 L 13956.13444 610.13 L 13887.85444 517.19 L 13887.73444 427.43 L 13855.63444 382.7 L 13627.61444 377.74 L 13551.83444 281.25 L 13404.34444 281.42 L 13321.75444 371.07 L 13100.68444 363.71 L 13023.58444 454.32 L 12948.49444 452.68 L 12872.66444 358.73 L 12795.48444 452.73 L 12642.63444 445.99 L 12574.25444 358.12 L 12122.42444 344.83 L 12045.37444 432.9 L 11970.20444 434.64 L 11932.00444 479.52 L 11932.02444 572.67 L 11886.37444 611.47 L 11818.11444 612.51 L 11736.08444 707.24 L 11512.87444 702.33 L 11435.83444 789.54 L 11359.88444 701.5 L 11245.96444 835.32 L 11233.08444 1200.85 L 11155.93444 1292.3 Z" />
  <path d="M 3717.63 6013.22 L 3824.99 6152.23 L 3903.2 6154.17 L 3939.65 6108.49 L 3946.84 6013.81 L 4022.51 5922.53 L 3915.13 5784.36 L 3764.34 5777.24 L 3725.12 5822.85 L 3717.63 6013.22 Z" />
</g>
</svg>