<svg xmlns="http://www.w3.org/2000/svg" viewBox="0 0 128 128" fill="none">
  <g stroke="#FFFFFF" stroke-linecap="round" stroke-linejoin="round">
    <path d="M21 21C21 31 13 39 3 39" stroke-width="5.8"/>
    <path d="M39 21C39 31 31 39 21 39" stroke-width="5.8"/>
    <path d="M57 21C57 31 49 39 39 39" stroke-width="5.8"/>
    <path d="M75 21C75 31 67 39 57 39" stroke-width="5.8"/>
    <path d="M93 21C93 31 85 39 75 39" stroke-width="5.8"/>
    <path d="M111 21C111 31 103 39 93 39" stroke-width="5.8"/>
    <path d="M21 39C21 49 13 57 3 57" stroke-width="5.8"/>
    <path d="M39 39C39 49 31 57 21 57" stroke-width="5.8"/>
    <path d="M57 39C57 49 49 57 39 57" stroke-width="5.8"/>
    <path d="M75 39C75 49 67 57 57 57" stroke-width="5.8"/>
    <path d="M93 39C93 49 85 57 75 57" stroke-width="5.8"/>
    <path d="M111 39C111 49 103 57 93 57" stroke-width="5.8"/>
    <path d="M21 57C21 67 13 75 3 75" stroke-width="5.8"/>
    <path d="M39 57C39 67 31 75 21 75" stroke-width="5.8"/>
    <path d="M57 57C57 67 49 75 39 75" stroke-width="5.8"/>
    <path d="M75 57C75 67 67 75 57 75" stroke-width="5.8"/>
    <path d="M93 57C93 67 85 75 75 75" stroke-width="5.8"/>
    <path d="M111 57C111 67 103 75 93 75" stroke-width="5.8"/>
    <path d="M3 85C15 85 21 80 30 80C39 80 45 85 57 85C69 85 75 80 84 80C93 80 99 85 111 85" stroke-width="5.2"/>
    <path d="M3 95C15 95 21 90 30 90C39 90 45 95 57 95C69 95 75 90 84 90C93 90 99 95 111 95" stroke-width="5.2"/>
    <path d="M3 105C15 105 21 100 30 100C39 100 45 105 57 105C69 105 75 100 84 100C93 100 99 105 111 105" stroke-width="5.2"/>
    <path d="M3 115C15 115 21 110 30 110C39 110 45 115 57 115C69 115 75 110 84 110C93 110 99 115 111 115" stroke-width="5.2"/>
  </g>
</svg>