<svg xmlns="http://www.w3.org/2000/svg" viewBox="0 0 720 540" fill="none">
  <rect width="720" height="540" fill="url(#bg)"/>
  <circle cx="590" cy="116" r="92" fill="#F6D9A6" opacity="0.18"/>
  <circle cx="132" cy="104" r="116" fill="#FFFFFF" opacity="0.05"/>
  <path d="M0 392C84 352 176 340 264 349C339 357 406 381 479 387C555 394 634 380 720 332V540H0V392Z" fill="rgba(255,255,255,0.08)"/>
  <ellipse cx="360" cy="246" rx="196" ry="118" fill="rgba(255,255,255,0.18)"/>
      <circle cx="360" cy="246" r="102" fill="none" stroke="rgba(255,255,255,0.94)" stroke-width="12"/>
      <circle cx="360" cy="246" r="70" fill="none" stroke="rgba(255,255,255,0.34)" stroke-width="3"/>
      <path d="M205 156V352" stroke="rgba(255,255,255,0.94)" stroke-width="10" stroke-linecap="round"/>
      <path d="M182 156V211" stroke="rgba(255,255,255,0.94)" stroke-width="7.5" stroke-linecap="round"/>
      <path d="M205 156V211" stroke="rgba(255,255,255,0.94)" stroke-width="7.5" stroke-linecap="round"/>
      <path d="M228 156V211" stroke="rgba(255,255,255,0.94)" stroke-width="7.5" stroke-linecap="round"/>
      <path d="M516 156V352" stroke="rgba(255,255,255,0.94)" stroke-width="10" stroke-linecap="round"/>
      <path d="M516 156C541 189 545 224 526 250" fill="none" stroke="rgba(255,255,255,0.94)" stroke-width="8.5" stroke-linecap="round"/>
      <circle cx="360" cy="246" r="13" fill="#F6D9A6" opacity="0.88"/>
      <path d="M268 338C298 325 329 319 360 319C393 319 423 325 454 338" fill="none" stroke="rgba(255,255,255,0.4)" stroke-width="5" stroke-linecap="round"/>
  <rect x="52" y="52" width="616" height="436" rx="36" stroke="rgba(255,255,255,0.12)" stroke-width="2"/>
  <rect x="0" y="336" width="720" height="204" fill="url(#bottomFade)"/>
  <rect x="64" y="398" width="156" height="12" rx="6" fill="rgba(255,255,255,0.3)"/>
  <rect x="64" y="426" width="248" height="18" rx="9" fill="rgba(255,255,255,0.92)"/>
  <rect x="64" y="454" width="196" height="18" rx="9" fill="rgba(255,255,255,0.7)"/>
  <defs>
    <linearGradient id="bg" x1="38" y1="34" x2="684" y2="506" gradientUnits="userSpaceOnUse">
      <stop stop-color="#4B2B18"/>
      <stop offset="1" stop-color="#C89A3D"/>
    </linearGradient>
    <linearGradient id="bottomFade" x1="360" y1="336" x2="360" y2="540" gradientUnits="userSpaceOnUse">
      <stop stop-color="rgba(16,36,63,0)"/>
      <stop offset="1" stop-color="rgba(16,36,63,0.44)"/>
    </linearGradient>
  </defs>
</svg>